<?xml version="1.0" encoding="UTF-8"?>
<svg id="Layer_1" xmlns="http://www.w3.org/2000/svg" version="1.1" viewBox="0 0 288 288">
  <!-- Generator: Adobe Illustrator 29.3.1, SVG Export Plug-In . SVG Version: 2.1.0 Build 151)  -->
  <defs>
    <style>
      .st0 {
        fill: none;
      }

      .st0, .st1 {
        display: none;
      }

      .st1 {
        fill: #fff;
      }
    </style>
  </defs>
  <rect class="st1" width="288" height="288"/>
  <path d="M213.4,54.1h-23.8v2.3h6.3v134.7c-.1,2.9-1.1,3.9-5,4.1h-1.3v2.5h26.9v-2.5h-2.8c-4.5-.2-6.2-2.2-6.2-6.4v-54.2h7.8c11.4,0,17.9-6,17.9-14v-51.3c0-8-5.6-15.2-19.7-15.2M221.7,123.2c0,4.5-2.6,8.6-7.7,8.6h-6.6V56.4h6c5.6,0,8.3,5.2,8.3,9.2v57.6h0ZM162.6,188.6h0c0,.1-15.2-134.5-15.2-134.5h-10.2l-14.8,133.2c-.9,4.8-1.3,7.7-8.2,7.8v2.5h17.9v-2.5c-5.1,0-7.4-3.2-6.9-6.6l6-54h13.9l6.3,55.8c0,3.4-.3,4.6-4,4.8h-1.8v2.5h23.9v-2.5h-.6c-4.6-.2-6.1-3.3-6.4-6.5M131.6,131.9l6.3-57.8,7.1,57.8h-13.4Z"/>
  <path d="M87.3,55.9c0,2.3-1.3,2.1-2.4,1.4-3.9-2.7-8.7-4.7-12.9-4.6-6.9,0-16.9,3.4-16.9,17.9v106.6c.1,18.5,9.1,22,17.9,22.1,6.9,0,10.2-3.6,12.9-4.8,1.5-.6,3.1.9,3.1,3.6h2.8v-63.6h5.8v-2.6h-24.2v2.6h7v54.1c0,4.7-3.2,8.3-7.3,8.3s-7-3.7-7-8.3v-122.3c0-3.3.6-11.1,5.8-11,4.3,0,7.2,4.3,8.6,10.8,1.4,6.8,2.3,23.2,2.3,30.1s.8,3.1,3.1,3.1h4.5v-45.3h-3.2v1.9h0Z"/>
  <path d="M191.4,225.3h5c1.8,0,3.2.8,3.2,2.6s-1,2.8-2.9,2.8h-5.3v-5.4h0ZM185.1,244.5h6.3v-8.8h4.8c2.9,0,3.4,2.5,3.5,4.9,0,.7.2,3.1.7,3.9h6.2c-.9-.9-.9-4.4-1-5.4-.2-2.3-.9-5.2-3.5-5.8h0c2.5-1.1,3.8-3.5,3.8-6.1,0-4.9-4.2-6.8-8.5-6.8h-12.3v24.2h0Z"/>
  <rect class="st0" width="288" height="288"/>
  <polygon points="55.2 244.5 61.5 244.5 61.5 235.2 71.4 235.2 71.4 230.3 61.5 230.3 61.5 225.3 73 225.3 73 220.3 55.2 220.3 55.2 244.5"/>
  <polygon points="151.6 220.3 130.9 220.3 130.9 225.7 138.1 225.7 138.1 244.4 144.4 244.4 144.4 225.7 151.6 225.7 151.6 220.3"/>
  <path d="M74.9,244.4h6.5l1.5-4.3h8.4l1.5,4.3h6.6l-9-24.2h-6.4l-9,24.2h0ZM87.1,227h0l2.7,8.5h-5.5l2.7-8.5h0Z"/>
  <path d="M125.4,228.4c-.2-5.8-5.8-9.1-11-9.1s-12.1,5.6-12.1,12.6,4.7,12.6,12.1,12.6,10.7-3.7,11-9.9h-6.3c-.2,2.8-1.9,4.5-4.9,4.5s-5.6-3.6-5.6-7.2,1.6-7.2,5.6-7.2,4.5,1.3,4.9,3.7h6.3Z"/>
  <path d="M161.8,231.9c0-3.6,1.6-7.2,5.6-7.2s5.6,3.6,5.6,7.2-1.6,7.2-5.6,7.2-5.6-3.6-5.6-7.2M155.5,231.9c0,7,4.3,12.6,11.9,12.6s11.9-5.6,11.9-12.6-4.3-12.6-11.9-12.6-11.9,5.6-11.9,12.6"/>
  <polygon points="234.1 220.3 226.9 220.3 222.1 230.1 217.3 220.3 210.2 220.3 219 235.5 219 244.5 225.3 244.5 225.3 235.5 234.1 220.3"/>
</svg>