<?xml version="1.0" encoding="UTF-8"?>
<svg id="Layer_1" data-name="Layer 1" xmlns="http://www.w3.org/2000/svg" width="1478" height="533" viewBox="0 0 1478 533">
  <defs>
    <style>
      .cls-1 {
        fill: #05274c;
      }
    </style>
  </defs>
  <path class="cls-1" d="M176.39,266.5c0,38.64-12.48,60.84-34.32,60.84s-34.56-22.08-34.56-60.84,12.48-60.84,34.32-60.84,34.56,22.08,34.56,60.84M238.07,266.5c0-66.96-37.92-110.28-95.64-110.28s-96.48,43.92-96.48,110.28,37.92,110.28,95.64,110.28,96.48-43.92,96.48-110.28M265.19,374.26h126.12v-49.8h-68.04v-165.84h-58.08v215.64ZM533.03,266.74c0,39.24-16.8,58.92-50.88,58.92h-7.2v-118.32h6.12c34.92,0,51.96,19.92,51.96,59.4M594.71,266.14c0-67.68-40.68-107.52-110.28-107.52h-67.44v215.64h63c70.8,0,114.72-41.4,114.72-108.12M791.87,374.26h64.68v-215.64h-51.72v126.6l-51.72-126.6h-69.72v215.64h51.72v-139.08l56.76,139.08h0ZM990.95,294.94h-39l19.68-101.52,19.32,101.52ZM1066.43,374.26l-46.68-215.64h-93.12l-46.68,215.64h56.64l6.12-32.04h57.84l6.12,32.04h59.76ZM1196.03,374.26l47.04-215.64h-56.16l-31.44,163.68-31.56-163.68h-58.92l47.28,215.64h83.76ZM1371.95,312.7l60.6-153.96h-56.4l-30.96,92.04-32.4-92.04h-60.6l61.68,154.56v61.08h58.08v-61.68Z"/>
</svg>